<?xml version="1.0" standalone="no"?>
<!DOCTYPE svg PUBLIC "-//W3C//DTD SVG 20010904//EN"
 "http://www.w3.org/TR/2001/REC-SVG-20010904/DTD/svg10.dtd">
<svg version="1.0" xmlns="http://www.w3.org/2000/svg"
 width="120.000000pt" height="120.000000pt" viewBox="0 0 120.000000 120.000000"
 preserveAspectRatio="xMidYMid meet">
<metadata>
Created by potrace 1.14, written by Peter Selinger 2001-2017
</metadata>
<g transform="translate(0.000000,120.000000) scale(0.100000,-0.100000)"
fill="#000000" stroke="none">
<path d="M381 766 l-264 -264 53 -56 c29 -31 56 -56 61 -56 4 0 27 18 51 40
l43 41 3 -58 c2 -43 -1 -60 -12 -69 -10 -7 -16 -27 -16 -52 0 -36 -4 -44 -29
-57 -17 -8 -38 -29 -48 -45 -10 -17 -33 -40 -51 -50 -18 -11 -38 -32 -45 -48
-11 -24 -17 -27 -55 -26 -45 1 -68 -15 -58 -41 5 -13 64 -15 465 -15 354 0
463 3 473 12 20 19 47 21 64 3 20 -19 58 -19 74 0 11 13 5 23 -33 62 l-45 46
-1 153 c0 85 1 154 4 154 2 0 15 -11 29 -25 14 -14 30 -25 35 -25 13 0 111 98
111 111 0 14 -519 529 -533 529 -7 0 -131 -119 -276 -264z"/>
<path d="M1145 54 c-15 -15 -15 -19 -1 -32 17 -17 46 -10 46 11 0 8 -6 20 -14
26 -11 9 -18 8 -31 -5z"/>
</g>
</svg>
